<svg version="1.2" xmlns="http://www.w3.org/2000/svg" viewBox="0 0 16 14" width="16" height="14">
	<title>footer-twitter</title>
	<style>
		.s0 { fill: #ffffff } 
		.s1 { fill: none;stroke: #ffffff } 
		.s2 { opacity: .7;fill: #000958 } 
	</style>
	<g>
		<path fill-rule="evenodd" class="s0" d="m8 23c-8.8 0-16-7.2-16-16 0-8.8 7.2-16 16-16 8.8 0 16 7.2 16 16 0 8.8-7.2 16-16 16z"/>
		<path fill-rule="evenodd" class="s1" d="m8 22.5c-8.6 0-15.5-6.9-15.5-15.5 0-8.6 6.9-15.5 15.5-15.5 8.6 0 15.5 6.9 15.5 15.5 0 8.6-6.9 15.5-15.5 15.5z"/>
	</g>
	<path class="s2" d="m5.6 13c1.1 0 2.2-0.2 3.2-0.6 1.1-0.5 2-1.1 2.8-1.9 0.8-0.8 1.4-1.8 1.9-2.8 0.4-1.1 0.6-2.2 0.6-3.3v-0.4q0.9-0.7 1.5-1.6-0.9 0.4-1.7 0.5c0.6-0.4 1.1-1 1.3-1.7q-0.9 0.6-1.9 0.8c-0.5-0.5-1.1-0.9-1.7-1-0.7-0.1-1.3 0-1.9 0.4-0.6 0.3-1 0.8-1.3 1.4-0.3 0.6-0.4 1.3-0.2 1.9-1.2 0-2.4-0.4-3.4-0.9-1.1-0.5-2-1.3-2.8-2.2-0.4 0.6-0.5 1.4-0.3 2.2 0.2 0.7 0.6 1.4 1.3 1.8q-0.8 0-1.4-0.4c0 0.7 0.3 1.4 0.7 2 0.4 0.5 1 0.9 1.7 1q-0.7 0.2-1.3 0.1c0.1 0.6 0.5 1.1 1 1.5 0.5 0.3 1.1 0.5 1.7 0.6-1 0.8-2.3 1.3-3.7 1.3q-0.3 0-0.7-0.1c1.4 0.9 3 1.4 4.6 1.4"/>
</svg>