<svg version="1.2" xmlns="http://www.w3.org/2000/svg" viewBox="0 0 14 14" width="14" height="14">
	<title>footer-linkedin</title>
	<style>
		.s0 { fill: #ffffff } 
		.s1 { fill: none;stroke: #ffffff } 
		.s2 { opacity: .7;fill: #000958 } 
	</style>
	<g>
		<path fill-rule="evenodd" class="s0" d="m7 23c-8.8 0-16-7.2-16-16 0-8.8 7.2-16 16-16 8.8 0 16 7.2 16 16 0 8.8-7.2 16-16 16z"/>
		<path fill-rule="evenodd" class="s1" d="m7 22.5c-8.6 0-15.5-6.9-15.5-15.5 0-8.6 6.9-15.5 15.5-15.5 8.6 0 15.5 6.9 15.5 15.5 0 8.6-6.9 15.5-15.5 15.5z"/>
	</g>
	<path class="s2" d="m13.2 0h-12.4q-0.3 0-0.6 0.2-0.2 0.3-0.2 0.6v12.4q0 0.3 0.2 0.6 0.3 0.2 0.6 0.2h12.4q0.3 0 0.6-0.2 0.2-0.3 0.2-0.6v-12.4q0-0.3-0.2-0.6-0.3-0.2-0.6-0.2zm-9 11.9h-2.1v-6.7h2.1zm-1.1-7.5c-0.3 0-0.6-0.2-0.8-0.4-0.3-0.2-0.4-0.5-0.4-0.8 0-0.4 0.1-0.7 0.4-0.9 0.2-0.2 0.5-0.4 0.8-0.4 0.3 0 0.6 0.2 0.9 0.4 0.2 0.2 0.3 0.5 0.3 0.9 0 0.3-0.1 0.6-0.3 0.8-0.3 0.2-0.6 0.4-0.9 0.4zm8.8 7.5h-2v-3.2c0-0.8-0.1-1.8-1.1-1.8-1.1 0-1.3 0.9-1.3 1.7v3.3h-2v-6.6h1.9v0.9h0.1c0.3-0.5 0.9-1.1 1.9-1.1 2.1 0 2.5 1.4 2.5 3.2v3.6z"/>
</svg>